<svg xmlns="http://www.w3.org/2000/svg" xmlns:xlink="http://www.w3.org/1999/xlink" version="1.1" width="1065px" height="734px" viewBox="-0.5 -0.5 1065 734"><defs><style type="text/css">ul { margin-top: 0px; margin-bottom: 10px; }&#xa;ol { margin-top: 0px; margin-bottom: 10px; }&#xa;.h1, .h2, .h3, .h4, .h5, .h6, h1, h2, h3, h4, h5, h6 { margin-bottom: .5rem; font-weight: 500; line-height: 1.2; }&#xa;h1, h2, h3, h4, h5, h6 { margin-top: 0; margin-bottom: .5rem; }&#xa;.h1, h1 { font-size: 2.5rem; }&#xa;h2 { font-size: 1.5em; font-weight: bold; }&#xa;h3 { font-size: 1.17em; font-weight: bold; }&#xa;.h4, h4 { font-size: 1.5rem; }&#xa;.h5, h5 { font-size: 1.25rem; }&#xa;.h6, h6 { font-size: 1rem; }&#xa;p { margin-top: 0; margin-bottom: 1rem; }&#xa;</style></defs><g><rect x="868" y="209" width="166" height="517" fill="#ffffff" stroke="#000000" stroke-width="2.88" stroke-dasharray="8.645833333333332 8.645833333333332" pointer-events="all"/><path d="M 873.76 726 L 868 726 L 868 698.28" fill="none" stroke="#000000" stroke-width="2.88" stroke-linejoin="bevel" stroke-miterlimit="4" stroke-dasharray="8.305603780864196 24.916811342592588" pointer-events="all"/><g fill="#000000" font-family="Helvetica" text-anchor="middle" font-size="12px"><text x="950.5" y="226.5">Roles</text></g><path d="M 80 15 L 159 15 Q 169 15 169 25 L 169 79.63" fill="none" stroke="#000000" stroke-miterlimit="10" pointer-events="stroke"/><path d="M 169 84.88 L 165.5 77.88 L 169 79.63 L 172.5 77.88 Z" fill="#000000" stroke="#000000" stroke-miterlimit="10" pointer-events="all"/><path d="M 80 15 L 297 15 Q 307 15 307 25 L 307 79.63" fill="none" stroke="#000000" stroke-miterlimit="10" pointer-events="stroke"/><path d="M 307 84.88 L 303.5 77.88 L 307 79.63 L 310.5 77.88 Z" fill="#000000" stroke="#000000" stroke-miterlimit="10" pointer-events="all"/><path d="M 80 15 L 435.7 15 Q 445.7 15 445.7 25 L 445.7 79.63" fill="none" stroke="#000000" stroke-miterlimit="10" pointer-events="stroke"/><path d="M 445.7 84.88 L 442.2 77.88 L 445.7 79.63 L 449.2 77.88 Z" fill="#000000" stroke="#000000" stroke-miterlimit="10" pointer-events="all"/><path d="M 80 15 L 574 15 Q 584 15 584 25 L 584 79.63" fill="none" stroke="#000000" stroke-miterlimit="10" pointer-events="stroke"/><path d="M 584 84.88 L 580.5 77.88 L 584 79.63 L 587.5 77.88 Z" fill="#000000" stroke="#000000" stroke-miterlimit="10" pointer-events="all"/><path d="M 80 15 L 712 15 Q 722 15 722 25 L 722 79.63" fill="none" stroke="#000000" stroke-miterlimit="10" pointer-events="stroke"/><path d="M 722 84.88 L 718.5 77.88 L 722 79.63 L 725.5 77.88 Z" fill="#000000" stroke="#000000" stroke-miterlimit="10" pointer-events="all"/><path d="M 80 15 L 850.7 15 Q 860.7 15 860.7 25 L 860.7 79.63" fill="none" stroke="#000000" stroke-miterlimit="10" pointer-events="stroke"/><path d="M 860.7 84.88 L 857.2 77.88 L 860.7 79.63 L 864.2 77.88 Z" fill="#000000" stroke="#000000" stroke-miterlimit="10" pointer-events="all"/><path d="M 80 15 L 989 15 Q 999 15 999 25 L 999 79.63" fill="none" stroke="#000000" stroke-miterlimit="10" pointer-events="stroke"/><path d="M 999 84.88 L 995.5 77.88 L 999 79.63 L 1002.5 77.88 Z" fill="#000000" stroke="#000000" stroke-miterlimit="10" pointer-events="all"/><path d="M 66.75 0.43 L 70.51 0.43 C 71.03 0.43 71.45 0.85 71.45 1.37 L 71.45 7.61 L 78.72 12.56 C 79.06 12.82 79.15 13.33 78.97 13.68 C 78.72 14.02 78.21 14.1 77.86 13.85 L 60 1.71 L 42.14 13.93 C 41.79 14.19 41.28 14.1 41.11 13.68 C 40.85 13.33 40.94 12.82 41.28 12.65 L 59.4 0.26 C 59.49 0.09 59.74 0 60 0 C 60.26 0 60.51 0.09 60.68 0.26 L 65.81 3.76 L 65.81 1.37 C 65.73 0.85 66.15 0.43 66.75 0.43 Z M 46.67 12.56 L 59.91 3.42 L 73.16 12.56 L 73.16 27.86 C 73.16 28.97 72.22 29.91 71.11 29.91 L 63.5 29.91 L 63.5 16.92 L 56.75 16.92 L 56.75 30 L 48.72 30 C 47.61 30 46.67 29.06 46.67 27.95 L 46.67 12.56 Z" fill="#cdd3da" stroke="#cdd3da" stroke-miterlimit="10" pointer-events="all"/><g fill="#000000" font-family="Helvetica" text-anchor="middle" font-size="12px"><text x="59.5" y="47.5">Home ( NavBar )</text></g><rect x="934" y="86" width="130" height="90" fill="#ffffff" stroke="#000000" pointer-events="all"/><g fill="#000000" font-family="Helvetica" text-anchor="middle" font-size="12px"><text x="998.5" y="135.5">Inscription</text></g><rect x="795.67" y="86" width="130" height="90" fill="#ffffff" stroke="#000000" pointer-events="all"/><g fill="#000000" font-family="Helvetica" text-anchor="middle" font-size="12px"><text x="860.17" y="135.5">Connection</text></g><path d="M 584 176 L 584 231 Q 584 241 594 241 L 642.63 241" fill="none" stroke="#000000" stroke-miterlimit="10" pointer-events="stroke"/><path d="M 647.88 241 L 640.88 244.5 L 642.63 241 L 640.88 237.5 Z" fill="#000000" stroke="#000000" stroke-miterlimit="10" pointer-events="all"/><path d="M 584 176 L 584 347 Q 584 357 594 357 L 642.63 357" fill="none" stroke="#000000" stroke-miterlimit="10" pointer-events="stroke"/><path d="M 647.88 357 L 640.88 360.5 L 642.63 357 L 640.88 353.5 Z" fill="#000000" stroke="#000000" stroke-miterlimit="10" pointer-events="all"/><path d="M 584 176 L 584 463 Q 584 473 594 473 L 642.63 473" fill="none" stroke="#000000" stroke-miterlimit="10" pointer-events="stroke"/><path d="M 647.88 473 L 640.88 476.5 L 642.63 473 L 640.88 469.5 Z" fill="#000000" stroke="#000000" stroke-miterlimit="10" pointer-events="all"/><rect x="519" y="86" width="130" height="90" fill="#91ead2" stroke="#64b19c" pointer-events="all"/><g fill="#000000" font-family="Helvetica" text-anchor="middle" font-size="12px"><text x="583.5" y="135.5">Profil</text></g><path d="M 275 176 L 275 231 Q 275 241 285 241 L 304.63 241" fill="none" stroke="#000000" stroke-miterlimit="10" pointer-events="stroke"/><path d="M 309.88 241 L 302.88 244.5 L 304.63 241 L 302.88 237.5 Z" fill="#000000" stroke="#000000" stroke-miterlimit="10" pointer-events="all"/><rect x="242.33" y="86" width="130" height="90" fill="#ffffff" stroke="#000000" pointer-events="all"/><g fill="#000000" font-family="Helvetica" text-anchor="middle" font-size="12px"><text x="306.83" y="135.5">Tournois</text></g><rect x="657.33" y="86" width="130" height="90" fill="#91ead2" stroke="#64b19c" pointer-events="all"/><g fill="#000000" font-family="Helvetica" text-anchor="middle" font-size="12px"><text x="721.83" y="135.5">LogOff</text></g><path d="M 478 176 L 478 231 Q 478 241 468 241 L 447.37 241" fill="none" stroke="#000000" stroke-miterlimit="10" pointer-events="stroke"/><path d="M 442.12 241 L 449.12 237.5 L 447.37 241 L 449.12 244.5 Z" fill="#000000" stroke="#000000" stroke-miterlimit="10" pointer-events="all"/><path d="M 478 176 L 478 234 Q 478 244 488 244 L 525 244 Q 535 244 535 254 L 535 347 Q 535 357 526.18 357 L 517.37 357" fill="none" stroke="#000000" stroke-miterlimit="10" pointer-events="stroke"/><path d="M 512.12 357 L 519.12 353.5 L 517.37 357 L 519.12 360.5 Z" fill="#000000" stroke="#000000" stroke-miterlimit="10" pointer-events="all"/><path d="M 478 176 L 478 234 Q 478 244 488 244 L 525 244 Q 535 244 535 254 L 535 459 Q 535 469 526.18 469 L 517.37 469" fill="none" stroke="#000000" stroke-miterlimit="10" pointer-events="stroke"/><path d="M 512.12 469 L 519.12 465.5 L 517.37 469 L 519.12 472.5 Z" fill="#000000" stroke="#000000" stroke-miterlimit="10" pointer-events="all"/><rect x="380.67" y="86" width="130" height="90" fill="#ff7c9b" stroke="#b75a70" pointer-events="all"/><g fill="#000000" font-family="Helvetica" text-anchor="middle" font-size="12px"><text x="445.17" y="135.5">Admin</text></g><path d="M 169 176 L 169 189.63" fill="none" stroke="#000000" stroke-miterlimit="10" pointer-events="stroke"/><path d="M 169 194.88 L 165.5 187.88 L 169 189.63 L 172.5 187.88 Z" fill="#000000" stroke="#000000" stroke-miterlimit="10" pointer-events="all"/><rect x="104" y="86" width="130" height="90" fill="#ffffff" stroke="#000000" pointer-events="all"/><g fill="#000000" font-family="Helvetica" text-anchor="middle" font-size="12px"><text x="168.5" y="135.5">Utilisateurs</text></g><rect x="649" y="196" width="130" height="90" fill="#91ead2" stroke="#64b19c" pointer-events="all"/><g fill="#000000" font-family="Helvetica" text-anchor="middle" font-size="12px"><text x="713.5" y="245.5">Update profil</text></g><rect x="649" y="312" width="130" height="90" fill="#91ead2" stroke="#64b19c" pointer-events="all"/><g fill="#000000" font-family="Helvetica" text-anchor="middle" font-size="12px"><text x="713.5" y="361.5">Updade Pseudo</text></g><rect x="649" y="428" width="130" height="90" fill="#91ead2" stroke="#64b19c" pointer-events="all"/><g fill="#000000" font-family="Helvetica" text-anchor="middle" font-size="12px"><text x="713.5" y="477.5">Delete profil</text></g><path d="M 344 286 L 344 347 Q 344 357 354 357 L 374.63 357" fill="none" stroke="#000000" stroke-miterlimit="10" pointer-events="stroke"/><path d="M 379.88 357 L 372.88 360.5 L 374.63 357 L 372.88 353.5 Z" fill="#000000" stroke="#000000" stroke-miterlimit="10" pointer-events="all"/><path d="M 344 286 L 344 459 Q 344 469 354 469 L 374.63 469" fill="none" stroke="#000000" stroke-miterlimit="10" pointer-events="stroke"/><path d="M 379.88 469 L 372.88 472.5 L 374.63 469 L 372.88 465.5 Z" fill="#000000" stroke="#000000" stroke-miterlimit="10" pointer-events="all"/><path d="M 344 286 L 344 406 Q 344 416 334 416 L 323.37 416" fill="none" stroke="#000000" stroke-miterlimit="10" pointer-events="stroke"/><path d="M 318.12 416 L 325.12 412.5 L 323.37 416 L 325.12 419.5 Z" fill="#000000" stroke="#000000" stroke-miterlimit="10" pointer-events="all"/><path d="M 344 286 L 344 678 Q 344 688 334 688 L 323.37 688" fill="none" stroke="#000000" stroke-miterlimit="10" pointer-events="stroke"/><path d="M 318.12 688 L 325.12 684.5 L 323.37 688 L 325.12 691.5 Z" fill="#000000" stroke="#000000" stroke-miterlimit="10" pointer-events="all"/><path d="M 344 286 L 344 571 Q 344 581 354 581 L 374.63 581" fill="none" stroke="#000000" stroke-miterlimit="10" pointer-events="stroke"/><path d="M 379.88 581 L 372.88 584.5 L 374.63 581 L 372.88 577.5 Z" fill="#000000" stroke="#000000" stroke-miterlimit="10" pointer-events="all"/><path d="M 344 286 L 344 537 Q 344 547 334 547 L 323.37 547" fill="none" stroke="#000000" stroke-miterlimit="10" pointer-events="stroke"/><path d="M 318.12 547 L 325.12 543.5 L 323.37 547 L 325.12 550.5 Z" fill="#000000" stroke="#000000" stroke-miterlimit="10" pointer-events="all"/><rect x="311" y="196" width="130" height="90" fill="#ffffff" stroke="#000000" pointer-events="all"/><g fill="#000000" font-family="Helvetica" text-anchor="middle" font-size="12px"><text x="375.5" y="245.5">Details Tournoi</text></g><rect x="380.67" y="312" width="130" height="90" fill="#ff7c9b" stroke="#b75a70" pointer-events="all"/><g fill="#000000" font-family="Helvetica" text-anchor="middle" font-size="12px"><text x="445.17" y="361.5">Update/delete Tournoi</text></g><path d="M 511 492 L 581 492 Q 591 492 591 502 L 591 529.63" fill="none" stroke="#000000" stroke-miterlimit="10" pointer-events="stroke"/><path d="M 591 534.88 L 587.5 527.88 L 591 529.63 L 594.5 527.88 Z" fill="#000000" stroke="#000000" stroke-miterlimit="10" pointer-events="all"/><rect x="380.67" y="424" width="130" height="90" fill="#ff7c9b" stroke="#b75a70" pointer-events="all"/><g fill="#000000" font-family="Helvetica" text-anchor="middle" font-size="12px"><text x="445.17" y="473.5">Admin Tournoi</text></g><rect x="187" y="371" width="130" height="90" fill="#d4aef9" stroke="#9f7ac3" transform="translate(0,416)scale(1,-1)translate(0,-416)" pointer-events="all"/><g fill="#000000" font-family="Helvetica" text-anchor="middle" font-size="12px"><text x="251.5" y="413.5">Insciption/desinscription</text><text x="251.5" y="427.5"> Tournoi</text></g><rect x="104" y="196" width="130" height="90" fill="#ffffff" stroke="#000000" pointer-events="all"/><g fill="#000000" font-family="Helvetica" text-anchor="middle" font-size="12px"><text x="168.5" y="245.5">Profil Utilisateur</text></g><path d="M 187 688 L 136.37 688" fill="none" stroke="#000000" stroke-miterlimit="10" pointer-events="stroke"/><path d="M 131.12 688 L 138.12 684.5 L 136.37 688 L 138.12 691.5 Z" fill="#000000" stroke="#000000" stroke-miterlimit="10" pointer-events="all"/><rect x="187" y="643" width="130" height="90" fill="#ffffff" stroke="#000000" transform="translate(0,688)scale(1,-1)translate(0,-688)" pointer-events="all"/><g fill="#000000" font-family="Helvetica" text-anchor="middle" font-size="12px"><text x="251.5" y="692.5">Rounds/matchs</text></g><path d="M 510.67 581 L 519.54 581 Q 528.4 581 528.4 591 L 528.4 678 Q 528.4 688 534.02 688 L 539.63 688" fill="none" stroke="#000000" stroke-miterlimit="10" pointer-events="stroke"/><path d="M 544.88 688 L 537.88 691.5 L 539.63 688 L 537.88 684.5 Z" fill="#000000" stroke="#000000" stroke-miterlimit="10" pointer-events="all"/><rect x="380.67" y="536" width="130" height="90" fill="#ffffff" stroke="#000000" pointer-events="all"/><g fill="#000000" font-family="Helvetica" text-anchor="middle" font-size="12px"><text x="445.17" y="585.5">Classement/resultat</text></g><rect x="187" y="501.5" width="130" height="90" fill="#d4aef9" stroke="#9f7ac3" transform="translate(0,546.5)scale(1,-1)translate(0,-546.5)" pointer-events="all"/><g fill="#000000" font-family="Helvetica" text-anchor="middle" font-size="12px"><text x="251.5" y="551">Update participation</text></g><rect x="0" y="643" width="130" height="90" fill="#d4aef9" stroke="#9f7ac3" pointer-events="all"/><g fill="#000000" font-family="Helvetica" text-anchor="middle" font-size="12px"><text x="64.5" y="685.5">Entré le </text><text x="64.5" y="699.5">resulta des parties</text></g><rect x="546" y="643" width="130" height="90" fill="#ff7c9b" stroke="#b75a70" pointer-events="all"/><g fill="#000000" font-family="Helvetica" text-anchor="middle" font-size="12px"><text x="610.5" y="692.5">Update Resultat</text></g><rect x="558" y="536" width="130" height="90" fill="#ff7c9b" stroke="#b75a70" pointer-events="all"/><g fill="#000000" font-family="Helvetica" text-anchor="middle" font-size="12px"><text x="622.5" y="578.5">Entrer modifer le </text><text x="622.5" y="592.5">resultat des parties</text></g><rect x="887" y="267" width="130" height="90" fill="#ffffff" stroke="#000000" pointer-events="all"/><g fill="#000000" font-family="Helvetica" text-anchor="middle" font-size="12px"><text x="951.5" y="316.5">Aucun</text></g><rect x="887" y="362" width="130" height="90" fill="#91ead2" stroke="#64b19c" pointer-events="all"/><g fill="#000000" font-family="Helvetica" text-anchor="middle" font-size="12px"><text x="951.5" y="411.5">Utilisitaeur</text></g><rect x="887" y="461" width="130" height="90" fill="#ff7c9b" stroke="#b75a70" pointer-events="all"/><g fill="#000000" font-family="Helvetica" text-anchor="middle" font-size="12px"><text x="951.5" y="503.5">Organisateur </text><text x="951.5" y="517.5">(du tournoi)</text></g><rect x="887" y="560" width="130" height="90" fill="#d4aef9" stroke="#9f7ac3" pointer-events="all"/><g fill="#000000" font-family="Helvetica" text-anchor="middle" font-size="12px"><text x="951.5" y="595.5">Utilisateur</text><text x="951.5" y="609.5">mais pas Organisateur</text><text x="951.5" y="623.5">(du tournoi)</text></g><path d="M 80 15 L 159 15 Q 169 15 169 25 L 169 79.63" fill="none" stroke="#000000" stroke-miterlimit="10" pointer-events="stroke"/><path d="M 169 84.88 L 165.5 77.88 L 169 79.63 L 172.5 77.88 Z" fill="#000000" stroke="#000000" stroke-miterlimit="10" pointer-events="all"/><path d="M 80 15 L 297 15 Q 307 15 307 25 L 307 79.63" fill="none" stroke="#000000" stroke-miterlimit="10" pointer-events="stroke"/><path d="M 307 84.88 L 303.5 77.88 L 307 79.63 L 310.5 77.88 Z" fill="#000000" stroke="#000000" stroke-miterlimit="10" pointer-events="all"/><path d="M 80 15 L 435.7 15 Q 445.7 15 445.7 25 L 445.7 79.63" fill="none" stroke="#000000" stroke-miterlimit="10" pointer-events="stroke"/><path d="M 445.7 84.88 L 442.2 77.88 L 445.7 79.63 L 449.2 77.88 Z" fill="#000000" stroke="#000000" stroke-miterlimit="10" pointer-events="all"/><path d="M 80 15 L 574 15 Q 584 15 584 25 L 584 79.63" fill="none" stroke="#000000" stroke-miterlimit="10" pointer-events="stroke"/><path d="M 584 84.88 L 580.5 77.88 L 584 79.63 L 587.5 77.88 Z" fill="#000000" stroke="#000000" stroke-miterlimit="10" pointer-events="all"/><path d="M 80 15 L 712 15 Q 722 15 722 25 L 722 79.63" fill="none" stroke="#000000" stroke-miterlimit="10" pointer-events="stroke"/><path d="M 722 84.88 L 718.5 77.88 L 722 79.63 L 725.5 77.88 Z" fill="#000000" stroke="#000000" stroke-miterlimit="10" pointer-events="all"/><path d="M 80 15 L 850.7 15 Q 860.7 15 860.7 25 L 860.7 79.63" fill="none" stroke="#000000" stroke-miterlimit="10" pointer-events="stroke"/><path d="M 860.7 84.88 L 857.2 77.88 L 860.7 79.63 L 864.2 77.88 Z" fill="#000000" stroke="#000000" stroke-miterlimit="10" pointer-events="all"/><path d="M 80 15 L 989 15 Q 999 15 999 25 L 999 79.63" fill="none" stroke="#000000" stroke-miterlimit="10" pointer-events="stroke"/><path d="M 999 84.88 L 995.5 77.88 L 999 79.63 L 1002.5 77.88 Z" fill="#000000" stroke="#000000" stroke-miterlimit="10" pointer-events="all"/><path d="M 584 176 L 584 231 Q 584 241 594 241 L 642.63 241" fill="none" stroke="#000000" stroke-miterlimit="10" pointer-events="stroke"/><path d="M 647.88 241 L 640.88 244.5 L 642.63 241 L 640.88 237.5 Z" fill="#000000" stroke="#000000" stroke-miterlimit="10" pointer-events="all"/><path d="M 584 176 L 584 347 Q 584 357 594 357 L 642.63 357" fill="none" stroke="#000000" stroke-miterlimit="10" pointer-events="stroke"/><path d="M 647.88 357 L 640.88 360.5 L 642.63 357 L 640.88 353.5 Z" fill="#000000" stroke="#000000" stroke-miterlimit="10" pointer-events="all"/><path d="M 584 176 L 584 463 Q 584 473 594 473 L 642.63 473" fill="none" stroke="#000000" stroke-miterlimit="10" pointer-events="stroke"/><path d="M 647.88 473 L 640.88 476.5 L 642.63 473 L 640.88 469.5 Z" fill="#000000" stroke="#000000" stroke-miterlimit="10" pointer-events="all"/><path d="M 275 176 L 275 231 Q 275 241 285 241 L 304.63 241" fill="none" stroke="#000000" stroke-miterlimit="10" pointer-events="stroke"/><path d="M 309.88 241 L 302.88 244.5 L 304.63 241 L 302.88 237.5 Z" fill="#000000" stroke="#000000" stroke-miterlimit="10" pointer-events="all"/><path d="M 478 176 L 478 231 Q 478 241 468 241 L 447.37 241" fill="none" stroke="#000000" stroke-miterlimit="10" pointer-events="stroke"/><path d="M 442.12 241 L 449.12 237.5 L 447.37 241 L 449.12 244.5 Z" fill="#000000" stroke="#000000" stroke-miterlimit="10" pointer-events="all"/><path d="M 478 176 L 478 234 Q 478 244 488 244 L 525 244 Q 535 244 535 254 L 535 347 Q 535 357 526.18 357 L 517.37 357" fill="none" stroke="#000000" stroke-miterlimit="10" pointer-events="stroke"/><path d="M 512.12 357 L 519.12 353.5 L 517.37 357 L 519.12 360.5 Z" fill="#000000" stroke="#000000" stroke-miterlimit="10" pointer-events="all"/><path d="M 478 176 L 478 234 Q 478 244 488 244 L 525 244 Q 535 244 535 254 L 535 459 Q 535 469 526.18 469 L 517.37 469" fill="none" stroke="#000000" stroke-miterlimit="10" pointer-events="stroke"/><path d="M 512.12 469 L 519.12 465.5 L 517.37 469 L 519.12 472.5 Z" fill="#000000" stroke="#000000" stroke-miterlimit="10" pointer-events="all"/><path d="M 169 176 L 169 189.63" fill="none" stroke="#000000" stroke-miterlimit="10" pointer-events="stroke"/><path d="M 169 194.88 L 165.5 187.88 L 169 189.63 L 172.5 187.88 Z" fill="#000000" stroke="#000000" stroke-miterlimit="10" pointer-events="all"/><path d="M 344 286 L 344 347 Q 344 357 354 357 L 374.63 357" fill="none" stroke="#000000" stroke-miterlimit="10" pointer-events="stroke"/><path d="M 379.88 357 L 372.88 360.5 L 374.63 357 L 372.88 353.5 Z" fill="#000000" stroke="#000000" stroke-miterlimit="10" pointer-events="all"/><path d="M 344 286 L 344 459 Q 344 469 354 469 L 374.63 469" fill="none" stroke="#000000" stroke-miterlimit="10" pointer-events="stroke"/><path d="M 379.88 469 L 372.88 472.5 L 374.63 469 L 372.88 465.5 Z" fill="#000000" stroke="#000000" stroke-miterlimit="10" pointer-events="all"/><path d="M 344 286 L 344 406 Q 344 416 334 416 L 323.37 416" fill="none" stroke="#000000" stroke-miterlimit="10" pointer-events="stroke"/><path d="M 318.12 416 L 325.12 412.5 L 323.37 416 L 325.12 419.5 Z" fill="#000000" stroke="#000000" stroke-miterlimit="10" pointer-events="all"/><path d="M 344 286 L 344 678 Q 344 688 334 688 L 323.37 688" fill="none" stroke="#000000" stroke-miterlimit="10" pointer-events="stroke"/><path d="M 318.12 688 L 325.12 684.5 L 323.37 688 L 325.12 691.5 Z" fill="#000000" stroke="#000000" stroke-miterlimit="10" pointer-events="all"/><path d="M 344 286 L 344 571 Q 344 581 354 581 L 374.63 581" fill="none" stroke="#000000" stroke-miterlimit="10" pointer-events="stroke"/><path d="M 379.88 581 L 372.88 584.5 L 374.63 581 L 372.88 577.5 Z" fill="#000000" stroke="#000000" stroke-miterlimit="10" pointer-events="all"/><path d="M 344 286 L 344 537 Q 344 547 334 547 L 323.37 547" fill="none" stroke="#000000" stroke-miterlimit="10" pointer-events="stroke"/><path d="M 318.12 547 L 325.12 543.5 L 323.37 547 L 325.12 550.5 Z" fill="#000000" stroke="#000000" stroke-miterlimit="10" pointer-events="all"/><path d="M 511 492 L 581 492 Q 591 492 591 502 L 591 529.63" fill="none" stroke="#000000" stroke-miterlimit="10" pointer-events="stroke"/><path d="M 591 534.88 L 587.5 527.88 L 591 529.63 L 594.5 527.88 Z" fill="#000000" stroke="#000000" stroke-miterlimit="10" pointer-events="all"/><path d="M 187 688 L 136.37 688" fill="none" stroke="#000000" stroke-miterlimit="10" pointer-events="stroke"/><path d="M 131.12 688 L 138.12 684.5 L 136.37 688 L 138.12 691.5 Z" fill="#000000" stroke="#000000" stroke-miterlimit="10" pointer-events="all"/><path d="M 510.67 581 L 519.54 581 Q 528.4 581 528.4 591 L 528.4 678 Q 528.4 688 534.02 688 L 539.63 688" fill="none" stroke="#000000" stroke-miterlimit="10" pointer-events="stroke"/><path d="M 544.88 688 L 537.88 691.5 L 539.63 688 L 537.88 684.5 Z" fill="#000000" stroke="#000000" stroke-miterlimit="10" pointer-events="all"/></g></svg>