<svg xmlns="http://www.w3.org/2000/svg" xmlns:xlink="http://www.w3.org/1999/xlink" version="1.1" width="1050px" height="727px" viewBox="-0.5 -0.5 1050 727"><defs><style type="text/css">ul { margin-top: 0px; margin-bottom: 10px; }&#xa;ol { margin-top: 0px; margin-bottom: 10px; }&#xa;.h1, .h2, .h3, .h4, .h5, .h6, h1, h2, h3, h4, h5, h6 { margin-bottom: .5rem; font-weight: 500; line-height: 1.2; }&#xa;h1, h2, h3, h4, h5, h6 { margin-top: 0; margin-bottom: .5rem; }&#xa;.h1, h1 { font-size: 2.5rem; }&#xa;h2 { font-size: 1.5em; font-weight: bold; }&#xa;h3 { font-size: 1.17em; font-weight: bold; }&#xa;.h4, h4 { font-size: 1.5rem; }&#xa;.h5, h5 { font-size: 1.25rem; }&#xa;.h6, h6 { font-size: 1rem; }&#xa;p { margin-top: 0; margin-bottom: 1rem; }&#xa;</style></defs><g><rect x="853" y="209" width="166" height="517" fill="#ffffff" stroke="#000000" stroke-width="2.88" stroke-dasharray="8.645833333333332 8.645833333333332" pointer-events="all"/><path d="M 858.76 726 L 853 726 L 853 698.28" fill="none" stroke="#000000" stroke-width="2.88" stroke-linejoin="bevel" stroke-miterlimit="4" stroke-dasharray="8.305603780864196 24.916811342592588" pointer-events="all"/><g fill="#000000" font-family="Helvetica" text-anchor="middle" font-size="12px"><text x="935.5" y="226.5">Roles</text></g><rect x="871" y="233" width="130" height="90" fill="#ffffff" stroke="#000000" pointer-events="all"/><g fill="#000000" font-family="Helvetica" text-anchor="middle" font-size="12px"><text x="935.5" y="282.5">Aucun / Visiteur</text></g><rect x="871" y="328" width="130" height="90" fill="#91ead2" stroke="#64b19c" pointer-events="all"/><g fill="#000000" font-family="Helvetica" text-anchor="middle" font-size="12px"><text x="935.5" y="377.5">Utilisitaeur</text></g><rect x="871" y="427" width="130" height="90" fill="#ff7c9b" stroke="#b75a70" pointer-events="all"/><g fill="#000000" font-family="Helvetica" text-anchor="middle" font-size="12px"><text x="935.5" y="469.5">Organisateur </text><text x="935.5" y="483.5">(du tournoi)</text></g><rect x="871" y="526" width="130" height="90" fill="#d4aef9" stroke="#9f7ac3" pointer-events="all"/><g fill="#000000" font-family="Helvetica" text-anchor="middle" font-size="12px"><text x="935.5" y="561.5">Utilisateur</text><text x="935.5" y="575.5">mais pas organisateur</text><text x="935.5" y="589.5">(du tournoi)</text></g><rect x="871" y="626" width="130" height="90" fill="#ffdc8c" stroke="#ddab38" pointer-events="all"/><g fill="#000000" font-family="Helvetica" text-anchor="middle" font-size="12px"><text x="935.5" y="675.5">Tous</text></g><path d="M 65 15 L 144 15 Q 154 15 154 25 L 154 79.63" fill="none" stroke="#000000" stroke-miterlimit="10" pointer-events="stroke"/><path d="M 154 84.88 L 150.5 77.88 L 154 79.63 L 157.5 77.88 Z" fill="#000000" stroke="#000000" stroke-miterlimit="10" pointer-events="all"/><path d="M 65 15 L 282 15 Q 292 15 292 25 L 292 79.63" fill="none" stroke="#000000" stroke-miterlimit="10" pointer-events="stroke"/><path d="M 292 84.88 L 288.5 77.88 L 292 79.63 L 295.5 77.88 Z" fill="#000000" stroke="#000000" stroke-miterlimit="10" pointer-events="all"/><path d="M 65 15 L 420.7 15 Q 430.7 15 430.7 25 L 430.7 79.63" fill="none" stroke="#000000" stroke-miterlimit="10" pointer-events="stroke"/><path d="M 430.7 84.88 L 427.2 77.88 L 430.7 79.63 L 434.2 77.88 Z" fill="#000000" stroke="#000000" stroke-miterlimit="10" pointer-events="all"/><path d="M 65 15 L 559 15 Q 569 15 569 25 L 569 79.63" fill="none" stroke="#000000" stroke-miterlimit="10" pointer-events="stroke"/><path d="M 569 84.88 L 565.5 77.88 L 569 79.63 L 572.5 77.88 Z" fill="#000000" stroke="#000000" stroke-miterlimit="10" pointer-events="all"/><path d="M 65 15 L 697 15 Q 707 15 707 25 L 707 79.63" fill="none" stroke="#000000" stroke-miterlimit="10" pointer-events="stroke"/><path d="M 707 84.88 L 703.5 77.88 L 707 79.63 L 710.5 77.88 Z" fill="#000000" stroke="#000000" stroke-miterlimit="10" pointer-events="all"/><path d="M 65 15 L 835.7 15 Q 845.7 15 845.7 25 L 845.7 79.63" fill="none" stroke="#000000" stroke-miterlimit="10" pointer-events="stroke"/><path d="M 845.7 84.88 L 842.2 77.88 L 845.7 79.63 L 849.2 77.88 Z" fill="#000000" stroke="#000000" stroke-miterlimit="10" pointer-events="all"/><path d="M 65 15 L 974 15 Q 984 15 984 25 L 984 79.63" fill="none" stroke="#000000" stroke-miterlimit="10" pointer-events="stroke"/><path d="M 984 84.88 L 980.5 77.88 L 984 79.63 L 987.5 77.88 Z" fill="#000000" stroke="#000000" stroke-miterlimit="10" pointer-events="all"/><path d="M 51.75 0.43 L 55.51 0.43 C 56.03 0.43 56.45 0.85 56.45 1.37 L 56.45 7.61 L 63.72 12.56 C 64.06 12.82 64.15 13.33 63.97 13.68 C 63.72 14.02 63.21 14.1 62.86 13.85 L 45 1.71 L 27.14 13.93 C 26.79 14.19 26.28 14.1 26.11 13.68 C 25.85 13.33 25.94 12.82 26.28 12.65 L 44.4 0.26 C 44.49 0.09 44.74 0 45 0 C 45.26 0 45.51 0.09 45.68 0.26 L 50.81 3.76 L 50.81 1.37 C 50.73 0.85 51.15 0.43 51.75 0.43 Z M 31.67 12.56 L 44.91 3.42 L 58.16 12.56 L 58.16 27.86 C 58.16 28.97 57.22 29.91 56.11 29.91 L 48.5 29.91 L 48.5 16.92 L 41.75 16.92 L 41.75 30 L 33.72 30 C 32.61 30 31.67 29.06 31.67 27.95 L 31.67 12.56 Z" fill="#cdd3da" stroke="#cdd3da" stroke-miterlimit="10" pointer-events="all"/><g fill="#000000" font-family="Helvetica" text-anchor="middle" font-size="12px"><text x="44.5" y="47.5">Home ( NavBar )</text></g><rect x="919" y="86" width="130" height="90" fill="#ffffff" stroke="#000000" pointer-events="all"/><g fill="#000000" font-family="Helvetica" text-anchor="middle" font-size="12px"><text x="983.5" y="135.5">Inscription</text></g><rect x="780.67" y="86" width="130" height="90" fill="#ffffff" stroke="#000000" pointer-events="all"/><g fill="#000000" font-family="Helvetica" text-anchor="middle" font-size="12px"><text x="845.17" y="135.5">Connection</text></g><path d="M 569 176 L 569 231 Q 569 241 579 241 L 627.63 241" fill="none" stroke="#000000" stroke-miterlimit="10" pointer-events="stroke"/><path d="M 632.88 241 L 625.88 244.5 L 627.63 241 L 625.88 237.5 Z" fill="#000000" stroke="#000000" stroke-miterlimit="10" pointer-events="all"/><path d="M 569 176 L 569 347 Q 569 357 579 357 L 627.63 357" fill="none" stroke="#000000" stroke-miterlimit="10" pointer-events="stroke"/><path d="M 632.88 357 L 625.88 360.5 L 627.63 357 L 625.88 353.5 Z" fill="#000000" stroke="#000000" stroke-miterlimit="10" pointer-events="all"/><path d="M 569 176 L 569 463 Q 569 473 579 473 L 627.63 473" fill="none" stroke="#000000" stroke-miterlimit="10" pointer-events="stroke"/><path d="M 632.88 473 L 625.88 476.5 L 627.63 473 L 625.88 469.5 Z" fill="#000000" stroke="#000000" stroke-miterlimit="10" pointer-events="all"/><rect x="504" y="86" width="130" height="90" fill="#91ead2" stroke="#64b19c" pointer-events="all"/><g fill="#000000" font-family="Helvetica" text-anchor="middle" font-size="12px"><text x="568.5" y="135.5">Profil</text></g><path d="M 260 176 L 260 231 Q 260 241 270 241 L 289.63 241" fill="none" stroke="#000000" stroke-miterlimit="10" pointer-events="stroke"/><path d="M 294.88 241 L 287.88 244.5 L 289.63 241 L 287.88 237.5 Z" fill="#000000" stroke="#000000" stroke-miterlimit="10" pointer-events="all"/><rect x="227.33" y="86" width="130" height="90" fill="#ffdc8c" stroke="#ddab38" pointer-events="all"/><g fill="#000000" font-family="Helvetica" text-anchor="middle" font-size="12px"><text x="291.83" y="135.5">Tournoi</text></g><rect x="642.33" y="86" width="130" height="90" fill="#91ead2" stroke="#64b19c" pointer-events="all"/><g fill="#000000" font-family="Helvetica" text-anchor="middle" font-size="12px"><text x="706.83" y="135.5">LogOff</text></g><path d="M 463 176 L 463 231 Q 463 241 453 241 L 432.37 241" fill="none" stroke="#000000" stroke-miterlimit="10" pointer-events="stroke"/><path d="M 427.12 241 L 434.12 237.5 L 432.37 241 L 434.12 244.5 Z" fill="#000000" stroke="#000000" stroke-miterlimit="10" pointer-events="all"/><path d="M 463 176 L 463 234 Q 463 244 473 244 L 510 244 Q 520 244 520 254 L 520 347 Q 520 357 511.18 357 L 502.37 357" fill="none" stroke="#000000" stroke-miterlimit="10" pointer-events="stroke"/><path d="M 497.12 357 L 504.12 353.5 L 502.37 357 L 504.12 360.5 Z" fill="#000000" stroke="#000000" stroke-miterlimit="10" pointer-events="all"/><path d="M 463 176 L 463 234 Q 463 244 473 244 L 510 244 Q 520 244 520 254 L 520 459 Q 520 469 511.18 469 L 502.37 469" fill="none" stroke="#000000" stroke-miterlimit="10" pointer-events="stroke"/><path d="M 497.12 469 L 504.12 465.5 L 502.37 469 L 504.12 472.5 Z" fill="#000000" stroke="#000000" stroke-miterlimit="10" pointer-events="all"/><rect x="365.67" y="86" width="130" height="90" fill="#ff7c9b" stroke="#b75a70" pointer-events="all"/><g fill="#000000" font-family="Helvetica" text-anchor="middle" font-size="12px"><text x="430.17" y="135.5">Admin</text></g><path d="M 154 176 L 154 189.63" fill="none" stroke="#000000" stroke-miterlimit="10" pointer-events="stroke"/><path d="M 154 194.88 L 150.5 187.88 L 154 189.63 L 157.5 187.88 Z" fill="#000000" stroke="#000000" stroke-miterlimit="10" pointer-events="all"/><rect x="89" y="86" width="130" height="90" fill="#ffdc8c" stroke="#ddab38" pointer-events="all"/><g fill="#000000" font-family="Helvetica" text-anchor="middle" font-size="12px"><text x="153.5" y="135.5">Utilisateur</text></g><rect x="634" y="196" width="130" height="90" fill="#91ead2" stroke="#64b19c" pointer-events="all"/><g fill="#000000" font-family="Helvetica" text-anchor="middle" font-size="12px"><text x="698.5" y="245.5">Update profil</text></g><rect x="634" y="312" width="130" height="90" fill="#91ead2" stroke="#64b19c" pointer-events="all"/><g fill="#000000" font-family="Helvetica" text-anchor="middle" font-size="12px"><text x="698.5" y="361.5">Updade pseudo</text></g><rect x="634" y="428" width="130" height="90" fill="#91ead2" stroke="#64b19c" pointer-events="all"/><g fill="#000000" font-family="Helvetica" text-anchor="middle" font-size="12px"><text x="698.5" y="477.5">Delete profil</text></g><path d="M 329 286 L 329 347 Q 329 357 339 357 L 359.63 357" fill="none" stroke="#000000" stroke-miterlimit="10" pointer-events="stroke"/><path d="M 364.88 357 L 357.88 360.5 L 359.63 357 L 357.88 353.5 Z" fill="#000000" stroke="#000000" stroke-miterlimit="10" pointer-events="all"/><path d="M 329 286 L 329 459 Q 329 469 339 469 L 359.63 469" fill="none" stroke="#000000" stroke-miterlimit="10" pointer-events="stroke"/><path d="M 364.88 469 L 357.88 472.5 L 359.63 469 L 357.88 465.5 Z" fill="#000000" stroke="#000000" stroke-miterlimit="10" pointer-events="all"/><path d="M 329 286 L 329 406 Q 329 416 319 416 L 308.37 416" fill="none" stroke="#000000" stroke-miterlimit="10" pointer-events="stroke"/><path d="M 303.12 416 L 310.12 412.5 L 308.37 416 L 310.12 419.5 Z" fill="#000000" stroke="#000000" stroke-miterlimit="10" pointer-events="all"/><path d="M 329 286 L 329 671 Q 329 681 319 681 L 308.37 681" fill="none" stroke="#000000" stroke-miterlimit="10" pointer-events="stroke"/><path d="M 303.12 681 L 310.12 677.5 L 308.37 681 L 310.12 684.5 Z" fill="#000000" stroke="#000000" stroke-miterlimit="10" pointer-events="all"/><path d="M 329 286 L 329 537 Q 329 547 319 547 L 308.37 547" fill="none" stroke="#000000" stroke-miterlimit="10" pointer-events="stroke"/><path d="M 303.12 547 L 310.12 543.5 L 308.37 547 L 310.12 550.5 Z" fill="#000000" stroke="#000000" stroke-miterlimit="10" pointer-events="all"/><rect x="296" y="196" width="130" height="90" fill="#ffdc8c" stroke="#ddab38" pointer-events="all"/><g fill="#000000" font-family="Helvetica" text-anchor="middle" font-size="12px"><text x="360.5" y="245.5">Detail tournoi</text></g><rect x="365.67" y="312" width="130" height="90" fill="#ff7c9b" stroke="#b75a70" pointer-events="all"/><g fill="#000000" font-family="Helvetica" text-anchor="middle" font-size="12px"><text x="430.17" y="354.5">Update / Delete</text><text x="430.17" y="368.5">tournoi</text></g><path d="M 496 492 L 566 492 Q 576 492 576 502 L 576 529.63" fill="none" stroke="#000000" stroke-miterlimit="10" pointer-events="stroke"/><path d="M 576 534.88 L 572.5 527.88 L 576 529.63 L 579.5 527.88 Z" fill="#000000" stroke="#000000" stroke-miterlimit="10" pointer-events="all"/><path d="M 431 514 L 431 529.63" fill="none" stroke="#000000" stroke-miterlimit="10" pointer-events="stroke"/><path d="M 431 534.88 L 427.5 527.88 L 431 529.63 L 434.5 527.88 Z" fill="#000000" stroke="#000000" stroke-miterlimit="10" pointer-events="all"/><rect x="365.67" y="424" width="130" height="90" fill="#ff7c9b" stroke="#b75a70" pointer-events="all"/><g fill="#000000" font-family="Helvetica" text-anchor="middle" font-size="12px"><text x="430.17" y="473.5">Admin tournoi</text></g><rect x="161" y="371" width="141" height="90" fill="#d4aef9" stroke="#9f7ac3" transform="translate(0,416)scale(1,-1)translate(0,-416)" pointer-events="all"/><g fill="#000000" font-family="Helvetica" text-anchor="middle" font-size="12px"><text x="231" y="413.5">Insciption / Désinscription</text><text x="231" y="427.5"> Tournoi</text></g><rect x="89" y="196" width="130" height="90" fill="#ffdc8c" stroke="#ddab38" pointer-events="all"/><g fill="#000000" font-family="Helvetica" text-anchor="middle" font-size="12px"><text x="153.5" y="245.5">Detail utilisateur</text></g><rect x="172" y="501.5" width="130" height="90" fill="#d4aef9" stroke="#9f7ac3" transform="translate(0,546.5)scale(1,-1)translate(0,-546.5)" pointer-events="all"/><g fill="#000000" font-family="Helvetica" text-anchor="middle" font-size="12px"><text x="236.5" y="551">Update ses decks</text></g><rect x="172" y="636" width="130" height="90" fill="#d4aef9" stroke="#9f7ac3" pointer-events="all"/><g fill="#000000" font-family="Helvetica" text-anchor="middle" font-size="12px"><text x="236.5" y="678.5">Entrer les </text><text x="236.5" y="692.5">résultats ses parties</text></g><rect x="365.67" y="536" width="130" height="90" fill="#ff7c9b" stroke="#b75a70" pointer-events="all"/><g fill="#000000" font-family="Helvetica" text-anchor="middle" font-size="12px"><text x="430.17" y="585.5">Update résultat</text></g><rect x="543" y="536" width="130" height="90" fill="#ff7c9b" stroke="#b75a70" pointer-events="all"/><g fill="#000000" font-family="Helvetica" text-anchor="middle" font-size="12px"><text x="607.5" y="578.5">Entrer / Modifer les </text><text x="607.5" y="592.5">résultats des parties</text></g><path d="M 65 15 L 144 15 Q 154 15 154 25 L 154 79.63" fill="none" stroke="#000000" stroke-miterlimit="10" pointer-events="stroke"/><path d="M 154 84.88 L 150.5 77.88 L 154 79.63 L 157.5 77.88 Z" fill="#000000" stroke="#000000" stroke-miterlimit="10" pointer-events="all"/><path d="M 65 15 L 282 15 Q 292 15 292 25 L 292 79.63" fill="none" stroke="#000000" stroke-miterlimit="10" pointer-events="stroke"/><path d="M 292 84.88 L 288.5 77.88 L 292 79.63 L 295.5 77.88 Z" fill="#000000" stroke="#000000" stroke-miterlimit="10" pointer-events="all"/><path d="M 65 15 L 420.7 15 Q 430.7 15 430.7 25 L 430.7 79.63" fill="none" stroke="#000000" stroke-miterlimit="10" pointer-events="stroke"/><path d="M 430.7 84.88 L 427.2 77.88 L 430.7 79.63 L 434.2 77.88 Z" fill="#000000" stroke="#000000" stroke-miterlimit="10" pointer-events="all"/><path d="M 65 15 L 559 15 Q 569 15 569 25 L 569 79.63" fill="none" stroke="#000000" stroke-miterlimit="10" pointer-events="stroke"/><path d="M 569 84.88 L 565.5 77.88 L 569 79.63 L 572.5 77.88 Z" fill="#000000" stroke="#000000" stroke-miterlimit="10" pointer-events="all"/><path d="M 65 15 L 697 15 Q 707 15 707 25 L 707 79.63" fill="none" stroke="#000000" stroke-miterlimit="10" pointer-events="stroke"/><path d="M 707 84.88 L 703.5 77.88 L 707 79.63 L 710.5 77.88 Z" fill="#000000" stroke="#000000" stroke-miterlimit="10" pointer-events="all"/><path d="M 65 15 L 835.7 15 Q 845.7 15 845.7 25 L 845.7 79.63" fill="none" stroke="#000000" stroke-miterlimit="10" pointer-events="stroke"/><path d="M 845.7 84.88 L 842.2 77.88 L 845.7 79.63 L 849.2 77.88 Z" fill="#000000" stroke="#000000" stroke-miterlimit="10" pointer-events="all"/><path d="M 65 15 L 974 15 Q 984 15 984 25 L 984 79.63" fill="none" stroke="#000000" stroke-miterlimit="10" pointer-events="stroke"/><path d="M 984 84.88 L 980.5 77.88 L 984 79.63 L 987.5 77.88 Z" fill="#000000" stroke="#000000" stroke-miterlimit="10" pointer-events="all"/><path d="M 569 176 L 569 231 Q 569 241 579 241 L 627.63 241" fill="none" stroke="#000000" stroke-miterlimit="10" pointer-events="stroke"/><path d="M 632.88 241 L 625.88 244.5 L 627.63 241 L 625.88 237.5 Z" fill="#000000" stroke="#000000" stroke-miterlimit="10" pointer-events="all"/><path d="M 569 176 L 569 347 Q 569 357 579 357 L 627.63 357" fill="none" stroke="#000000" stroke-miterlimit="10" pointer-events="stroke"/><path d="M 632.88 357 L 625.88 360.5 L 627.63 357 L 625.88 353.5 Z" fill="#000000" stroke="#000000" stroke-miterlimit="10" pointer-events="all"/><path d="M 569 176 L 569 463 Q 569 473 579 473 L 627.63 473" fill="none" stroke="#000000" stroke-miterlimit="10" pointer-events="stroke"/><path d="M 632.88 473 L 625.88 476.5 L 627.63 473 L 625.88 469.5 Z" fill="#000000" stroke="#000000" stroke-miterlimit="10" pointer-events="all"/><path d="M 260 176 L 260 231 Q 260 241 270 241 L 289.63 241" fill="none" stroke="#000000" stroke-miterlimit="10" pointer-events="stroke"/><path d="M 294.88 241 L 287.88 244.5 L 289.63 241 L 287.88 237.5 Z" fill="#000000" stroke="#000000" stroke-miterlimit="10" pointer-events="all"/><path d="M 463 176 L 463 231 Q 463 241 453 241 L 432.37 241" fill="none" stroke="#000000" stroke-miterlimit="10" pointer-events="stroke"/><path d="M 427.12 241 L 434.12 237.5 L 432.37 241 L 434.12 244.5 Z" fill="#000000" stroke="#000000" stroke-miterlimit="10" pointer-events="all"/><path d="M 463 176 L 463 234 Q 463 244 473 244 L 510 244 Q 520 244 520 254 L 520 347 Q 520 357 511.18 357 L 502.37 357" fill="none" stroke="#000000" stroke-miterlimit="10" pointer-events="stroke"/><path d="M 497.12 357 L 504.12 353.5 L 502.37 357 L 504.12 360.5 Z" fill="#000000" stroke="#000000" stroke-miterlimit="10" pointer-events="all"/><path d="M 463 176 L 463 234 Q 463 244 473 244 L 510 244 Q 520 244 520 254 L 520 459 Q 520 469 511.18 469 L 502.37 469" fill="none" stroke="#000000" stroke-miterlimit="10" pointer-events="stroke"/><path d="M 497.12 469 L 504.12 465.5 L 502.37 469 L 504.12 472.5 Z" fill="#000000" stroke="#000000" stroke-miterlimit="10" pointer-events="all"/><path d="M 154 176 L 154 189.63" fill="none" stroke="#000000" stroke-miterlimit="10" pointer-events="stroke"/><path d="M 154 194.88 L 150.5 187.88 L 154 189.63 L 157.5 187.88 Z" fill="#000000" stroke="#000000" stroke-miterlimit="10" pointer-events="all"/><path d="M 329 286 L 329 347 Q 329 357 339 357 L 359.63 357" fill="none" stroke="#000000" stroke-miterlimit="10" pointer-events="stroke"/><path d="M 364.88 357 L 357.88 360.5 L 359.63 357 L 357.88 353.5 Z" fill="#000000" stroke="#000000" stroke-miterlimit="10" pointer-events="all"/><path d="M 329 286 L 329 459 Q 329 469 339 469 L 359.63 469" fill="none" stroke="#000000" stroke-miterlimit="10" pointer-events="stroke"/><path d="M 364.88 469 L 357.88 472.5 L 359.63 469 L 357.88 465.5 Z" fill="#000000" stroke="#000000" stroke-miterlimit="10" pointer-events="all"/><path d="M 329 286 L 329 406 Q 329 416 319 416 L 308.37 416" fill="none" stroke="#000000" stroke-miterlimit="10" pointer-events="stroke"/><path d="M 303.12 416 L 310.12 412.5 L 308.37 416 L 310.12 419.5 Z" fill="#000000" stroke="#000000" stroke-miterlimit="10" pointer-events="all"/><path d="M 329 286 L 329 671 Q 329 681 319 681 L 308.37 681" fill="none" stroke="#000000" stroke-miterlimit="10" pointer-events="stroke"/><path d="M 303.12 681 L 310.12 677.5 L 308.37 681 L 310.12 684.5 Z" fill="#000000" stroke="#000000" stroke-miterlimit="10" pointer-events="all"/><path d="M 329 286 L 329 537 Q 329 547 319 547 L 308.37 547" fill="none" stroke="#000000" stroke-miterlimit="10" pointer-events="stroke"/><path d="M 303.12 547 L 310.12 543.5 L 308.37 547 L 310.12 550.5 Z" fill="#000000" stroke="#000000" stroke-miterlimit="10" pointer-events="all"/><path d="M 496 492 L 566 492 Q 576 492 576 502 L 576 529.63" fill="none" stroke="#000000" stroke-miterlimit="10" pointer-events="stroke"/><path d="M 576 534.88 L 572.5 527.88 L 576 529.63 L 579.5 527.88 Z" fill="#000000" stroke="#000000" stroke-miterlimit="10" pointer-events="all"/><path d="M 431 514 L 431 529.63" fill="none" stroke="#000000" stroke-miterlimit="10" pointer-events="stroke"/><path d="M 431 534.88 L 427.5 527.88 L 431 529.63 L 434.5 527.88 Z" fill="#000000" stroke="#000000" stroke-miterlimit="10" pointer-events="all"/></g></svg>